<svg width="28" height="28" viewBox="0 0 28 28" fill="none" xmlns="http://www.w3.org/2000/svg">
<circle cx="14" cy="14" r="13" fill="#9D9DA1" stroke="white" stroke-width="2"/>
<path fill-rule="evenodd" clip-rule="evenodd" d="M9.78125 11.6562C9.78125 10.6207 10.6207 9.78125 11.6562 9.78125H16.3438C17.3793 9.78125 18.2188 10.6207 18.2188 11.6562V12.6228C18.8396 12.8941 19.2734 13.5136 19.2734 14.2344V17.75H18.1016V16.9297H9.89844V17.75H8.72656V14.2344C8.72656 13.5136 9.16042 12.8941 9.78125 12.6228V11.6562ZM13.5312 12.4766H11.1875V11.6562C11.1875 11.3974 11.3974 11.1875 11.6562 11.1875H13.0625C13.3214 11.1875 13.5312 11.3974 13.5312 11.6562V12.4766ZM16.8125 12.4766H14.4688V11.6562C14.4688 11.3974 14.6786 11.1875 14.9375 11.1875H16.3438C16.6026 11.1875 16.8125 11.3974 16.8125 11.6562V12.4766ZM18.1016 15.7578H9.89844V14.2344C9.89844 13.9108 10.1608 13.6484 10.4844 13.6484H17.5156C17.8392 13.6484 18.1016 13.9108 18.1016 14.2344V15.7578Z" fill="white"/>
</svg>
